/* XPM */
static char * banque_xpm[] = {
"50 50 178 2",
"  	c None",
". 	c #0DAFD4",
"+ 	c #0DAFD3",
"@ 	c #10ACD4",
"# 	c #11ACD5",
"$ 	c #10ADD4",
"% 	c #10ACD5",
"& 	c #13AAD5",
"* 	c #14AAD6",
"= 	c #16A7D6",
"- 	c #15A8D6",
"; 	c #17A6D7",
"> 	c #1AA4D7",
", 	c #1AA3D8",
"' 	c #1AA4D8",
") 	c #1AA3D7",
"! 	c #19A4D7",
"~ 	c #19A5D7",
"{ 	c #1BA3D8",
"] 	c #1CA2D8",
"^ 	c #1DA1D8",
"/ 	c #1BA2D8",
"( 	c #1DA2D8",
"_ 	c #1F9FD9",
": 	c #209FD9",
"< 	c #1FA0D9",
"[ 	c #239CDA",
"} 	c #269ADB",
"| 	c #259ADB",
"1 	c #2699DB",
"2 	c #2997DC",
"3 	c #2898DC",
"4 	c #2C94DD",
"5 	c #2D93DD",
"6 	c #2F91DE",
"7 	c #2E92DE",
"8 	c #328FDF",
"9 	c #338EDF",
"0 	c #338FDF",
"a 	c #328EDF",
"b 	c #358DDF",
"c 	c #368BE0",
"d 	c #348DDF",
"e 	c #358CE0",
"f 	c #358DE0",
"g 	c #368CE0",
"h 	c #348EDF",
"i 	c #3989E0",
"j 	c #388AE0",
"k 	c #3B87E1",
"l 	c #3A88E1",
"m 	c #3C86E2",
"n 	c #3C87E2",
"o 	c #3B87E2",
"p 	c #3D85E2",
"q 	c #3C87E1",
"r 	c #3E84E2",
"s 	c #3F83E2",
"t 	c #3F84E2",
"u 	c #3E85E2",
"v 	c #4181E3",
"w 	c #447FE4",
"x 	c #437FE4",
"y 	c #487CE5",
"z 	c #467DE4",
"A 	c #477DE5",
"B 	c #477CE5",
"C 	c #497BE5",
"D 	c #487BE5",
"E 	c #4A7AE6",
"F 	c #4B79E6",
"G 	c #4A7AE5",
"H 	c #4A79E5",
"I 	c #4B79E5",
"J 	c #4D78E6",
"K 	c #4E76E7",
"L 	c #4C78E6",
"M 	c #4D77E7",
"N 	c #4D77E6",
"O 	c #4E77E7",
"P 	c #5174E7",
"Q 	c #5174E8",
"R 	c #5074E7",
"S 	c #5372E8",
"T 	c #5471E8",
"U 	c #5472E8",
"V 	c #576FE9",
"W 	c #586EE9",
"X 	c #566FE9",
"Y 	c #5670E9",
"Z 	c #596DEA",
"` 	c #5A6CEA",
" .	c #5B6CEA",
"..	c #5A6DEA",
"+.	c #5C6AEB",
"@.	c #5D69EB",
"#.	c #6066EC",
"$.	c #5F67EC",
"%.	c #6067EC",
"&.	c #6264ED",
"*.	c #6363ED",
"=.	c #6364ED",
"-.	c #6464ED",
";.	c #6465ED",
">.	c #6661EE",
",.	c #6561EE",
"'.	c #695FEF",
").	c #6C5CF0",
"!.	c #6C5BF0",
"~.	c #6F59F1",
"{.	c #6E5AF0",
"].	c #6F5AF1",
"^.	c #6E59F0",
"/.	c #6F59F0",
"(.	c #7157F2",
"_.	c #7256F2",
":.	c #7257F2",
"<.	c #7554F3",
"[.	c #7455F3",
"}.	c #7654F3",
"|.	c #7653F3",
"1.	c #7454F3",
"2.	c #7851F4",
"3.	c #7852F4",
"4.	c #7951F4",
"5.	c #7753F3",
"6.	c #7752F4",
"7.	c #7B4FF5",
"8.	c #7C4FF5",
"9.	c #7C4EF5",
"0.	c #7D4EF5",
"a.	c #7B50F4",
"b.	c #7B4FF4",
"c.	c #7C50F4",
"d.	c #7F4BF6",
"e.	c #7E4CF5",
"f.	c #7F4BF5",
"g.	c #7F4CF5",
"h.	c #7E4DF5",
"i.	c #8149F6",
"j.	c #8248F6",
"k.	c #804AF6",
"l.	c #8249F6",
"m.	c #8347F7",
"n.	c #8446F7",
"o.	c #8546F7",
"p.	c #8447F7",
"q.	c #8844F8",
"r.	c #8843F8",
"s.	c #8744F8",
"t.	c #8B42F9",
"u.	c #8B41F9",
"v.	c #8C41F9",
"w.	c #8A42F9",
"x.	c #8C40F9",
"y.	c #8C40FA",
"z.	c #8E3EFA",
"A.	c #903DFA",
"B.	c #8E3FFA",
"C.	c #8F3EFA",
"D.	c #8D40FA",
"E.	c #8D3FFA",
"F.	c #913CFB",
"G.	c #923BFB",
"H.	c #913BFB",
"I.	c #903CFA",
"J.	c #933AFB",
"K.	c #9439FB",
"L.	c #9339FB",
"M.	c #9439FC",
"N.	c #943AFB",
"O.	c #9636FC",
"P.	c #9637FC",
"Q.	c #9834FD",
"R.	c #9933FD",
"S.	c #9D31FE",
"T.	c #9D30FE",
"U.	c #9C31FE",
"                                                                                                    ",
"                                . . . . + + + + + + + + + + . . . .                                 ",
"                            @ # $ %                             @ $ # %                             ",
"                        & & &                                         & & *                         ",
"                      = = -                     = =                     = = ;                       ",
"            > , ' ) ! ! !   > > ) ! > , >       ! ~       ) ' ! ) > > ) ) ! ! > { > > )             ",
"        ] ] ] ] ] ^ ] /     ^ ] ] ] ] ] ]     ] ] ( (     ] ] ] ] ] ] ] ] ] ] ] ] ] ] ] ] ]         ",
"        _ :                                   :     :                                   < _         ",
"        [                                     [ [                                         [         ",
"        }                                     | 1 } |                                     }         ",
"        2                                           3                                     2         ",
"        4                                     4 4 5 4                                     4         ",
"        6                                     7 6 6 7                                     6         ",
"        8 9 8 8 8 8 9 8 8 9 0 9 8 9 8 8 8       8 8       8 8 8 8 a 8 8 8 8 8 8 8 8 8 8 8 8         ",
"        b c d e d f f b d d g d d d h e f       f d       f d d e e 9 e d f d d e b h d f d         ",
"        i                                                                                 j         ",
"        k l k m m m k n n o p m o o m q m n o m m m m m m m o m o m k k n m m m k n n l o k         ",
"          r s r r r r r r r p r r r r s r r r r r r r t r r u r r r r r r r r p r r r s r           ",
"          v v                                                                         v v           ",
"          w w                                                                         w x           ",
"          y z     A B C y y D B   B B B y B C D     y y y y y A A   A B B A B B y     D B           ",
"          E F     E         G H   F F         G     I         J F   E C         F     E G           ",
"          K L     M         K N   M K         M     N         O K   M K         J     M K           ",
"          P P     P         Q Q   R P         P     P         R Q   Q R         R     P Q           ",
"          S T     T         T T   U T         T     U         T T   S T         T     T T           ",
"          V W     V         V V   V V       V V     V V       V V   X Y         V     V V           ",
"          Z `     ` ` ` ` ` ` `   ` ` ` ` ` ` `     Z ` ` ` ` `  .  ` ` ` ..` ` `      .Z           ",
"          +.+.                                                                        @.+.          ",
"          #.#.                                                                        $.%.          ",
"  &.&.*.*.=.&.-.;.&.*.&.&.*.=.=.*.&.=.=.&.&.&.&.&.=.&.&.&.=.=.*.=.&.&.&.&.=.&.&.&.=.&.&.*.&.*.*.*.  ",
"  >.>.                                                                                        >.,.  ",
"  '.                                                                                            '.  ",
"  ).).).).).).).).).).).).).).).).).).!.).).).).).).).).).).).).).).).).).).).).).).).).).).).).).  ",
"    ~.~.{.~.~.~.{.{.~.~.~.{.~.{.{.{.{.{.].{.{.{.^.{.{.{.{.~.{.{.{.{.{.{.{.{.].{.{.{./.~.~.{.~.~.    ",
"    (._.  _._.                                                                        (.:.  (.:.    ",
"    <.<.  [.<.    <.<.}.<.<.<.<.<.|.      <.<.<.<.<.<.<.<.      1.<.<.<.<.<.<.<.|.    <.[.  <.<.    ",
"    2.3.  4.4.    3.5.3.3.3.3.3.2.4.    3.4.3.3.4.2.4.3.3.3.    3.3.3.3.3.6.3.6.2.    3.3.  4.2.    ",
"    7.7.  8.9.    7.            0.a.    7.      b.7.      7.    b.c.            7.    9.7.  7.9.    ",
"    d.e.  f.f.    g.            h.f.    f.      e.e.      e.    f.h.            f.    e.e.  e.e.    ",
"    i.i.  j.j.    i.            i.k.    j.      i.i.      i.    i.l.            i.    i.i.  i.i.    ",
"    m.n.  n.n.    n.            n.n.    n.      o.n.      n.    p.n.            n.    n.n.  n.n.    ",
"    q.q.  q.q.    r.r.r.r.r.r.r.r.r.    r.      r.r.      r.    q.q.r.r.r.r.r.s.r.    r.q.  q.r.    ",
"    t.u.  u.v.    u.u.u.u.u.u.u.u.u.    u.      u.u.      u.    w.u.v.u.u.u.u.u.u.    x.u.  u.w.    ",
"    y.z.  y.A.                          B.      C.B.      C.                          D.C.  C.E.    ",
"    F.F.  F.G.                        H.F.      I.A.      G.J.                        F.I.  H.G.    ",
"  K.K.K.K.K.K.K.L.K.L.M.J.K.K.L.K.K.L.K.K.L.K.K.K.K.J.J.J.J.K.K.L.K.J.K.L.K.K.K.L.K.L.K.K.M.N.K.K.  ",
"  O.O.                                                                                        P.O.  ",
"  Q.R.                                                                                        R.Q.  ",
"  S.T.S.T.T.T.T.T.T.S.U.S.U.T.T.T.T.S.T.U.T.T.S.S.S.S.T.T.S.T.T.T.T.T.T.U.T.S.U.T.S.T.S.T.T.T.S.T.  ",
"                                                                                                    "};
