/* XPM */
static char * dollars_xpm[] = {
"50 50 332 2",
"  	c None",
". 	c #F5D229",
"+ 	c #F8D73B",
"@ 	c #FAD942",
"# 	c #FCDB48",
"$ 	c #FDDC4B",
"% 	c #FEDD4D",
"& 	c #FFDE4F",
"* 	c #FEDD4E",
"= 	c #F0CD00",
"- 	c #F3D121",
"; 	c #F8D73C",
"> 	c #FEDE51",
", 	c #FFDE50",
"' 	c #FEDE4F",
") 	c #FEDE4D",
"! 	c #F4D227",
"~ 	c #FBDA45",
"{ 	c #FFDE51",
"] 	c #FDDF54",
"^ 	c #F2D01C",
"/ 	c #FADA44",
"( 	c #FEDE52",
"_ 	c #FEDE50",
": 	c #FEE375",
"< 	c #F7D535",
"[ 	c #FEE371",
"} 	c #FFEA94",
"| 	c #FFEA93",
"1 	c #F1CE0C",
"2 	c #FBD943",
"3 	c #FEDE4E",
"4 	c #FFDA4B",
"5 	c #FFD543",
"6 	c #FFD23F",
"7 	c #FFD13F",
"8 	c #FECC3F",
"9 	c #FCC73F",
"0 	c #FDCC43",
"a 	c #FDD649",
"b 	c #FEDE53",
"c 	c #FFE991",
"d 	c #F2CF17",
"e 	c #FCDC4A",
"f 	c #FFDD4F",
"g 	c #FFD441",
"h 	c #FFC82B",
"i 	c #FFC013",
"j 	c #FFBD00",
"k 	c #FEB800",
"l 	c #FBAB00",
"m 	c #F9A312",
"n 	c #F9AE2C",
"o 	c #FCC942",
"p 	c #FFE371",
"q 	c #FFE88B",
"r 	c #FCDC4D",
"s 	c #FFDC4D",
"t 	c #FFCE39",
"u 	c #FFC012",
"v 	c #FEB600",
"w 	c #FAA200",
"x 	c #F79711",
"y 	c #FBBF4A",
"z 	c #FFE690",
"A 	c #FFE98E",
"B 	c #FEE05D",
"C 	c #F1CE0F",
"D 	c #FDDB49",
"E 	c #FFBC00",
"F 	c #F9A200",
"G 	c #F79500",
"H 	c #FBB947",
"I 	c #FFE285",
"J 	c #FFC847",
"K 	c #FDB600",
"L 	c #F89A00",
"M 	c #F79827",
"N 	c #FCCF76",
"O 	c #FFE98F",
"P 	c #FEE05C",
"Q 	c #F0CD01",
"R 	c #FBDA44",
"S 	c #FFC82C",
"T 	c #FCAD00",
"U 	c #F68E00",
"V 	c #FDDB84",
"W 	c #FFE284",
"X 	c #FBA800",
"Y 	c #F9B354",
"Z 	c #FEE05F",
"` 	c #FEE168",
" .	c #F8D638",
"..	c #FFDE4E",
"+.	c #FEDD4C",
"@.	c #FFDA4A",
"#.	c #FFC31E",
"$.	c #FBA900",
"%.	c #FEE38B",
"&.	c #FFE78A",
"*.	c #FCB000",
"=.	c #F69000",
"-.	c #F8A23A",
";.	c #FED858",
">.	c #FEDE54",
",.	c #FEE26D",
"'.	c #F3D01F",
").	c #FFC117",
"!.	c #FEB900",
"~.	c #F9A000",
"{.	c #F8AB4B",
"].	c #FFE68F",
"^.	c #FFE88E",
"/.	c #FFCA4B",
"(.	c #FDB200",
"_.	c #F79A17",
":.	c #FED649",
"<.	c #FCDB47",
"[.	c #FFDD4E",
"}.	c #FFC31D",
"|.	c #FFBB00",
"1.	c #FAA300",
"2.	c #F68F00",
"3.	c #F8A948",
"4.	c #FDDD86",
"5.	c #FFE386",
"6.	c #FFC948",
"7.	c #FAA600",
"8.	c #F89F1D",
"9.	c #FEDB4E",
"0.	c #FFE26D",
"a.	c #FFE990",
"b.	c #F5D32C",
"c.	c #F89700",
"d.	c #FAB95E",
"e.	c #FFE993",
"f.	c #FFD05F",
"g.	c #FDB100",
"h.	c #F89800",
"i.	c #F9AF3F",
"j.	c #FFD240",
"k.	c #F89900",
"l.	c #F8AD4D",
"m.	c #FFCA4D",
"n.	c #F79200",
"o.	c #FCCF77",
"p.	c #FFDC4E",
"q.	c #FBAA00",
"r.	c #F6900C",
"s.	c #FEE089",
"t.	c #FEE58F",
"u.	c #FFE891",
"v.	c #FFE791",
"w.	c #FFE589",
"x.	c #FFBE0A",
"y.	c #FCB100",
"z.	c #F99E00",
"A.	c #F79929",
"B.	c #F9D841",
"C.	c #FECF3A",
"D.	c #F79400",
"E.	c #F9B255",
"F.	c #FEE38D",
"G.	c #F79D33",
"H.	c #FEE48D",
"I.	c #FFCD55",
"J.	c #FBC56C",
"K.	c #FEE680",
"L.	c #F0CD05",
"M.	c #FEDD4F",
"N.	c #FFBF12",
"O.	c #FCCD75",
"P.	c #FAB95D",
"Q.	c #FEE38A",
"R.	c #FED474",
"S.	c #F79828",
"T.	c #FFE892",
"U.	c #FFE681",
"V.	c #F4D229",
"W.	c #FFD440",
"X.	c #FCAF00",
"Y.	c #FDD882",
"Z.	c #F79825",
"`.	c #F79826",
" +	c #FEDC82",
".+	c #F69100",
"++	c #FCD27B",
"@+	c #FFE680",
"#+	c #F8D63B",
"$+	c #FFC92C",
"%+	c #FCAE00",
"&+	c #FDD983",
"*+	c #F69313",
"=+	c #FED97F",
"-+	c #F9B457",
";+	c #FFE67F",
">+	c #FBDA43",
",+	c #FDB300",
"'+	c #FCD37C",
")+	c #F8A846",
"!+	c #FFE58B",
"~+	c #FBBE5E",
"{+	c #FFE48C",
"]+	c #FBB646",
"^+	c #F99D00",
"/+	c #F79821",
"(+	c #FEDA4B",
"_+	c #FAC168",
":+	c #FDD982",
"<+	c #F6931A",
"[+	c #FAA100",
"}+	c #FED64A",
"|+	c #F79C31",
"1+	c #FFE992",
"2+	c #FEE18A",
"3+	c #FFE790",
"4+	c #FCCC42",
"5+	c #F79100",
"6+	c #FBC46B",
"7+	c #FFE78F",
"8+	c #FCBC52",
"9+	c #FAA406",
"0+	c #FCC43E",
"a+	c #F3D01D",
"b+	c #FBCB72",
"c+	c #FCBF58",
"d+	c #F79300",
"e+	c #FEE08A",
"f+	c #FDD173",
"g+	c #FCC43F",
"h+	c #FFD23E",
"i+	c #F99F00",
"j+	c #F68F04",
"k+	c #F9AE4F",
"l+	c #FDCB6A",
"m+	c #FED543",
"n+	c #FBAD2D",
"o+	c #FDCD44",
"p+	c #FCC867",
"q+	c #FDD64A",
"r+	c #FAB246",
"s+	c #FFE68C",
"t+	c #FBC15E",
"u+	c #F8A947",
"v+	c #FDD77B",
"w+	c #F79813",
"x+	c #F8D639",
"y+	c #FFC82D",
"z+	c #FDD67F",
"A+	c #FFEA95",
"B+	c #F9AF2D",
"C+	c #FED442",
"D+	c #FFC011",
"E+	c #FDD275",
"F+	c #F79712",
"G+	c #F9D840",
"H+	c #FFD04B",
"I+	c #F79D34",
"J+	c #FCBE55",
"K+	c #FBBD39",
"L+	c #F4D226",
"M+	c #FFE370",
"N+	c #FFE890",
"O+	c #FFC129",
"P+	c #FAA400",
"Q+	c #FEE289",
"R+	c #FAA50B",
"S+	c #FFDB4E",
"T+	c #FFDA77",
"U+	c #FBB94D",
"V+	c #FCC63F",
"W+	c #F8DC64",
"X+	c #FCC35E",
"Y+	c #F9AD2C",
"Z+	c #F7DC67",
"`+	c #FFC53C",
" @	c #FEE086",
".@	c #FBB748",
"+@	c #F99C00",
"@@	c #F8A01D",
"#@	c #FEDC57",
"$@	c #FDB718",
"%@	c #F79600",
"&@	c #F68E01",
"*@	c #FBB84B",
"=@	c #FED74B",
"-@	c #FFE05D",
";@	c #FED94B",
">@	c #FBB01F",
",@	c #FFE58A",
"'@	c #FFE05C",
")@	c #FEDC4E",
"!@	c #FCBC41",
"~@	c #FDDC84",
"{@	c #FEDE84",
"]@	c #FDE687",
"^@	c #F3D238",
"/@	c #FDD578",
"(@	c #FAAC2D",
"_@	c #F89600",
":@	c #FAAF47",
"<@	c #FEDF85",
"[@	c #FBB647",
"}@	c #F79713",
"|@	c #FCC640",
"1@	c #FDCD6D",
"2@	c #FAAB2B",
"3@	c #FEDB4D",
"4@	c #FDE069",
"5@	c #FDD77C",
"6@	c #FCC059",
"7@	c #FAAB23",
"8@	c #FAA000",
"9@	c #F89C12",
"0@	c #F9AF2C",
"a@	c #FFDE4D",
"b@	c #F5D754",
"c@	c #FFE57F",
"d@	c #FED84A",
"e@	c #FDD142",
"f@	c #FDCA3D",
"g@	c #FDC93F",
"h@	c #FCC53F",
"i@	c #FDCC44",
"j@	c #FFEA92",
"k@	c #FEE98F",
"l@	c #FDE47C",
"m@	c #FDDE51",
"n@	c #F3D122",
"o@	c #FDDC4A",
"p@	c #F8D73A",
"q@	c #FBD942",
"                                        . + @ # $ % % % & *                                         ",
"                                = - ; $ > , , , , ' ) ) & , , & & *                                 ",
"                            = ! ~ , { ] > ' , , , ' ) ) & , , , , { > *                             ",
"                        = ^ / ' , , { ( > , , , , , , , , , , ' ' > ( ( _ :                         ",
"                      = < & _ , , , , ' > , , , , , , , , , , _ > _ ' ' [ } |                       ",
"                  = 1 2 , , , , , , , 3 ' 4 5 6 7 8 9 0 a _ , > b _ 3 [ } } } } c                   ",
"                = d e ( { , , , , f g h i j j j j j j k l m n o f & p } } } } } } q                 ",
"              = d r ] ( { , , s t u j j j j j j j j j j j j v w x y z } } } } } A B '               ",
"            = C D _ ' _ , , 6 u j j j j E F G H I I J j j j j j K L M N } } } O P _ > _             ",
"          = Q R , & ) 3 s S j j j j j j T U U V } } W j j j j j j j X U Y z O Z ( _ _ ( `           ",
"          =  ., , ..+.@.#.j j j j j j j $.U U %.} } &.j j j j j j j j *.=.-.;.>.b _ 3 ,.|           ",
"        = '.& , , , 4 ).j j j j j j j !.~.U {.].} } ^./.j j j j j j j j (.=._.:._ > ,.| } |         ",
"      = = <., , , [.}.j j j j j j |.1.2.3.4.} } } } } } 5.6.j j j j j j j 7.U 8.9.0.| } } } a.      ",
"      = b., , , , S j j j j j j !.c.U d.e.} } } } } } } } | f.j j j j j g.1.h.U i.} } } } } }       ",
"    = = # ) , , j.j j j j j j E k.U l.} } } } } } } } } } } | m.j j j *.1.1.w n.U o.} } } } } a.    ",
"    = ! ' ' , p.i j j j j j j q.U r.s.} } } t.u.} } v.t.} } } w.x.j y.1.1.1.1.z.U A.z } } } } }     ",
"  = = B._ > ' C.j j j j j j j D.U E.} } } F.G.%.} } %.G.H.} } } I.y.1.1.1.1.1.1.D.U J.} } } } K.'   ",
"  = L.M._ ' M.N.j j j j j j v U U O.} } } P.U %.} } Q.U d.} } } R.1.1.1.1.1.1.1.z.U S.T.} } U.' _   ",
"  = V.( 3 ) W.j j j j j j j X.U U Y.} } } Z.U %.} } Q.U `.} } }  +1.1.1.1.1.1.1.1..+U ++} @+b ( 3   ",
"  = #+( _ 3 $+j j j j j j j %+U U &+} } } *+U %.} } Q.U U v.} } =+1.1.1.1.1.1.1.1.h.U -+;+> ( b b   ",
"= = >+> _ ' u j j j j j j j ,+U U '+} } } )+U %.} } !+h.U ~+u.{+]+1.1.1.1.1.1.1.1.^+U /+, , , ( > ' ",
"= = $ _ _ (+j j j j j j j j |.2.U _+} } } :+<+Q.} } &.j *.1.1.1.1.1.1.1.1.1.1.1.1.[+U U }+& , , , & ",
"= = , , , 5 j j j j j j j j j ~.U |+1+} } } 2+3+} } &.*.1.1.1.1.1.1.1.1.1.1.1.1.1.1.2.U 4+_ > , , ' ",
"= 1 , , , 6 j j j j j j j j j k 5+U 6+} } } } } } } 7+8+9+1.1.1.1.1.1.1.1.1.1.1.1.1.n.U 0+_ > > , & ",
"= a+, , , 6 j j j j j j j j j j ,+n.U b+} } } } } } } } Q.c+1.1.1.1.1.1.1.1.1.1.1.1.d+U 0+_ > > > & ",
"= a+, , , 6 j j j j j j j j j j j !.~.U -+e+} } } } } } } } f+1.1.1.1.1.1.1.1.1.1.1.d+U g+, , , , & ",
"= 1 , , , h+j j j j j j j j j j j j j k i+j+k+].} } } } } } } l+1.1.1.1.1.1.1.1.1.1.n.U g+, , { , ..",
"= = , , & m+j j j j j j j j j j j j j j q.U U %.} } 3+s.} } } 1+n+1.1.1.1.1.1.1.1.1.2.U o+, { >.b & ",
"= = $ , , @.j j j j j j j j j j j j j j $.U U %.} } Q.<+:+} } } p+1.1.1.1.1.1.1.1.[+U U q+_ > ( ( _ ",
"= = R , , , u j j j j j j j j ~.U r+s+c t+U U %.} } %.U u+} } } v+1.1.1.1.1.1.1.1.^+U w+, _ _ _ _ * ",
"  = x+, , , y+j j j j j j j y.U U z+} } v.U U %.} } Q.U *+A+} }  +1.1.1.1.1.1.1.1.h.U B+, > ' ) )   ",
"  = V.' ( b C+j j j j j j j X.U U Y.} } } Z.U %.} } %.U Z.} } }  +1.1.1.1.1.1.1.1..+U o , , , & &   ",
"  = L.* > ( _ D+j j j j j j v U U O.} } } P.U %.} } %.U P.} } } E+1.1.1.1.1.1.1.^+U F+f , , , & '   ",
"  = = G+_ _ > H+j j j j j j j D.U E.} } } F.I+%.} } Q.I+H.} } } J+1.1.1.1.1.1.1.D.U K+, , , , _ 3   ",
"    = L+_ 3 M+N+O+j j j j j j P+U r.s.} } } t.v.} } u.t.} } } Q+R+1.1.1.1.1.1.z.U w+S+{ > _ _ (     ",
"    = = # [ } } T+j j j j j *.1.d+U l.e.} } } } } } } } } } | U+1.1.1.1.1.1.1.n.U V+, { b > _ 3     ",
"      = W+} } } } I.j j j *.1.1.[+n.U d.e.} } } } } } } } e.X+1.1.1.1.1.1.1.h.U Y+& > ( ( ( '       ",
"      Z+} } } } } N+`+j *.1.1.1.1.w c.U 3.4.} } } } } }  @.@1.1.1.1.1.1.1.+@U @@9._ > _ _ _ '       ",
"        | } } } } O #@$@1.1.1.1.1.1.1.[+%@&@{.].} } 7+*@1.1.1.1.1.1.1.1.z.2._.=@( _ 3 ) 3 &         ",
"          } } } A -@, ;@>@1.1.1.1.1.1.1.L U U %.} } ,@1.1.1.1.1.1.1.1.^+2.8.=@, ( _ 3 ) ..          ",
"          a.} A '@, , , )@!@1.1.1.1.1.1.+@U U ~@} } {@1.1.1.1.1.1.1.k.U n S+, , { _ ' ) %           ",
"            ]@^@e { , _ 0.| /@(@1.1.1.1.1._@5+:@<@<@[@1.1.1.1.1.i+d+}@|@, , , , , , _ 3             ",
"              = d $ , ,.| } } 3+1@2@1.1.1.1.1.1.1.1.1.1.1.1.~.c.F+K+3@3 ' , , , , , '               ",
"                = d 4@| } } } } } e.5@6@7@1.1.1.1.1.1.8@L 9@0@o f , ..a@3 & , , , &                 ",
"                  b@| } } } } } } } } c@> d@e@f@g@9 h@i@}+, , ( ( _ 3 ) 3 & , , %                   ",
"                      | } } } } } } c@_ _ ' ' & , , , , , , , > > _ _ ' ' _ ,                       ",
"                        j@} } } } @+3 ' _ ( ( , , , , , , , , & ' > ( ] > '                         ",
"                            k@} l@> ) ) ' ( , , , , , , , , , , , { b m@                            ",
"                                = n@ .o@' _ , , , , , , & , , , ..M.                                ",
"                                        V.p@q@<.$ * ..* ' '                                         "};
