/* XPM */
static char * players_xpm[] = {
"50 50 137 2",
"  	c None",
". 	c #4D2C21",
"+ 	c #381D16",
"@ 	c #553025",
"# 	c #402119",
"$ 	c #7C4537",
"% 	c #6C3A2D",
"& 	c #4E2C21",
"* 	c #784335",
"= 	c #8B4D3E",
"- 	c #7E4536",
"; 	c #68382C",
"> 	c #3A1E17",
", 	c #5F3529",
"' 	c #814739",
") 	c #723E30",
"! 	c #4B271E",
"~ 	c #734032",
"{ 	c #703F32",
"] 	c #713F32",
"^ 	c #744033",
"/ 	c #774235",
"( 	c #844A3B",
"_ 	c #7E4537",
": 	c #7D4536",
"< 	c #804637",
"[ 	c #754032",
"} 	c #67382B",
"| 	c #623529",
"1 	c #5E3327",
"2 	c #5F3226",
"3 	c #4C2C21",
"4 	c #7D4436",
"5 	c #7F4637",
"6 	c #7F4537",
"7 	c #7C4435",
"8 	c #784233",
"9 	c #7C4436",
"0 	c #784132",
"a 	c #371D16",
"b 	c #794234",
"c 	c #804638",
"d 	c #7A4334",
"e 	c #864B3B",
"f 	c #733E30",
"g 	c #824C37",
"h 	c #74402E",
"i 	c #72432E",
"j 	c #804738",
"k 	c #7D4435",
"l 	c #613526",
"m 	c #391E16",
"n 	c #573523",
"o 	c #8C503D",
"p 	c #7F4536",
"q 	c #804736",
"r 	c #452519",
"s 	c #774731",
"t 	c #683A28",
"u 	c #533222",
"v 	c #834B39",
"w 	c #794331",
"x 	c #402217",
"y 	c #573324",
"z 	c #84493B",
"A 	c #743F31",
"B 	c #46251A",
"C 	c #7F4638",
"D 	c #733F31",
"E 	c #794335",
"F 	c #8A4C3D",
"G 	c #7A4335",
"H 	c #64362A",
"I 	c #6E3D2F",
"J 	c #834839",
"K 	c #85493A",
"L 	c #894C3D",
"M 	c #774134",
"N 	c #723E31",
"O 	c #6B3B2F",
"P 	c #61362B",
"Q 	c #542E24",
"R 	c #513021",
"S 	c #6E3C2F",
"T 	c #7C4335",
"U 	c #412317",
"V 	c #6F3D30",
"W 	c #7B4334",
"X 	c #923B1F",
"Y 	c #89381E",
"Z 	c #83361E",
"` 	c #84361E",
" .	c #83402E",
"..	c #573026",
"+.	c #44241C",
"@.	c #44251C",
"#.	c #45251C",
"$.	c #49271F",
"%.	c #774132",
"&.	c #CD4A1C",
"*.	c #DE4C12",
"=.	c #D94B15",
"-.	c #9C462F",
";.	c #784133",
">.	c #764032",
",.	c #DC4C14",
"'.	c #A8482E",
").	c #B14829",
"!.	c #BD4925",
"~.	c #7C4334",
"{.	c #774032",
"].	c #C6491F",
"^.	c #64352A",
"/.	c #A01410",
"(.	c #693329",
"_.	c #774031",
":.	c #CD4A1B",
"<.	c #AD0000",
"[.	c #A60E0A",
"}.	c #703228",
"|.	c #AE0000",
"1.	c #A90906",
"2.	c #762F25",
"3.	c #AC0403",
"4.	c #7F2C22",
"5.	c #872820",
"6.	c #91221A",
"7.	c #764031",
"8.	c #981D16",
"9.	c #9F1812",
"0.	c #673429",
"a.	c #A4110C",
"b.	c #6D3228",
"c.	c #A80C08",
"d.	c #743026",
"e.	c #AB0604",
"f.	c #7B2E24",
"                                              . . + +                                               ",
"                                      . . . . . . + + + + + +                                       ",
"                                . . . . . . . . . + + + + + + + + +                                 ",
"                            . . . . . . . . . . . + + + + + + + + + + +                             ",
"                            . . . . . . . . . . . + + + + + + + + + + +                             ",
"                        . . . . . . . . . . . . . + + + + + + + + + + + + +                         ",
"                      . . . . . . . . . . . . . . + + + + + + + + + + + + + +                       ",
"                    . . . . . . . . . . . . . . . + + + + + + + + + + + + + + +                     ",
"                  . . . . . . . . . . . . . . . . + + + + + + + + + + + + + + + +                   ",
"                . . . . . . . . . . . . . . . . . + + + + + + + + + + + + + + + + +                 ",
"                . . . . . . . . . . . . . . . . @ # + + + + + + + + + + + + + + + +                 ",
"                . . . . . . . . . . . . . . . . $ % + + + + + + + + + + + + + + + +                 ",
"                . . . . . . . . . . . . . . & * = - ; > + + + + + + + + + + + + + +                 ",
"              . . . . . . . . . . . . . . , ' = = - - ) ! + + + + + + + + + + + + + +               ",
"            . . . . . . . . ~ { ] ] ^ / ( = = = = - _ : < [ } | | 1 1 2 + + + + + + + +             ",
"            . . . . . . . 3 = = = = = = = = = = = 4 : - - - 5 : - 6 7 8 + + + + + + + +             ",
"              . . . . . . . = = = = = = = = = = = _ 4 _ - - _ 6 5 _ 7 9 + + + + + + +               ",
"            . . . . . . . . = = = = = = = = = = = - - - 7 _ 4 4 : _ 4 0 a + + + + + + +             ",
"            . . . . . . . . = = = = = = = = = = = 7 _ 5 - 4 4 7 7 7 4 b + + + + + + + +             ",
"            . . . . . . . . = = = = = = = = = = = 5 : : - - 9 c 4 5 - d + + + + + + + +             ",
"            . . . . . . . . e = = = = = = = = = = 4 - - 7 5 5 4 6 - 7 f + + + + + + + +             ",
"              . . . . . . . g = = = = = = = = = = _ _ - 6 : - _ - _ - h + + + + + + +               ",
"            . . . . . . . . i = = = = = = = = = = 7 _ 5 _ - j 5 k 4 - l + + + + + + + m             ",
"            . . . . . . . . n o = = = = = = = = = : _ 7 - - p _ < 4 q r + + + + + + + +             ",
"          . . . . . . . . . . s = = = = = = = = = - 9 < 7 5 4 _ 7 - t + + + + + + + + + +           ",
"          . . . . . . . . . . u v = = = = = = = = - - - - - - 4 : w x + + + + + + + + + +           ",
"          . . . . . . . . . . . y z = = = = = = = - 7 5 _ 6 c : A B + + + + + + + + + + +           ",
"            . . . . . . . . . . . @ C = = = = = = - - k - - : D # + + + + + + + + + + +             ",
"            . . . . . . . . . . . . . E F = = = = 4 _ 7 - G H + + + + + + + + + + + + +             ",
"              . . . . . . . . . . . . I - J K L L b M N O P Q + + + + + + + + + + + +               ",
"                . . . . . . . . . . . I - - - - 5 P P P P P Q + + + + + + + + + + +                 ",
"                    R . . . . . . . . S - : T - T P P P P P Q + + + + + + + + U                     ",
"                      . . . . . . . . V _ - 9 7 W P P P P P Q + + + + + + + +                       ",
"                        X Y Z Z Z Z `  .- 4 7 - : P P P P P ..+.@.@.+.#.#.$.                        ",
"                %.0 %.%.&.*.*.*.*.*.*.=.-.5 5 : ;.P P P P P P P P P P P P P P P P P                 ",
"            %.%.%.>.%.%.&.*.*.*.*.*.*.*.,.'.4 _ d P P P P P P P P P P P P P P P P P P P             ",
"          %.%.%.%.%.%.%.&.*.*.*.*.*.*.*.*.*.).- - P P P P P P P P P P P P P P P P P P P P           ",
"          %.%.%.%.%.%.%.&.*.*.*.*.*.*.*.*.*.*.!.~.P P P P P P P P P P P P P P P P P P P P           ",
"        %.%.%.0 {.>.0 %.&.*.*.*.*.*.*.*.*.*.*.*.].^.P P P P P P P P P P P P P P P P P P P P         ",
"        %.%.0 {.%.%.%.>.&.*.*.*.*.*.*.*.*.*.*.*.*./.(.P P P P P P P P P P P P P P P P P P P         ",
"        %.%.0 0 %.%._.{.:.*.*.*.*.*.*.*.*.*.*.*.*.<.[.}.P P P P P P P P P P P P P P P P P P         ",
"      %.%.%.%.%.%.%.0 %.&.*.*.*.*.*.*.*.*.*.*.*.*.<.|.1.2.P P P P P P P P P P P P P P P P P P       ",
"      %.%.%.>.%.{.0 %.;.&.*.*.*.*.*.*.*.*.*.*.*.*.<.|.|.3.4.P P P P P P P P P P P P P P P P P       ",
"      %.%.%.%.%.0 %._.%.:.*.*.*.*.*.*.*.*.*.*.*.*.<.|.|.|.|.5.P P P P P P P P P P P P P P P P       ",
"      %.%.%.%.{.0 %.%.{.&.*.*.*.*.*.*.*.*.*.*.*.*.<.|.|.|.|.|.6.P P P P P P P P P P P P P P P       ",
"      %.%.%.%.%.%.%.0 7.&.*.*.*.*.*.*.*.*.*.*.*.*.<.|.|.|.|.|.|.8.^.P P P P P P P P P P P P P       ",
"      %.%.%.0 %.{.0 %.%.&.*.*.*.*.*.*.*.*.*.*.*.*.<.|.|.|.|.|.|.|.9.0.P P P P P P P P P P P P       ",
"      %.%.%.%.;.>.%.%.{.&.*.*.*.*.*.*.*.*.*.*.*.*.<.|.|.|.|.|.|.|.|.a.b.P P P P P P P P P P P       ",
"      %.%.;.%.>.{.0 %.{.&.*.*.*.*.*.*.*.*.*.*.*.*.<.|.|.|.|.|.|.|.|.|.c.d.P P P P P P P P P P       ",
"      %.{.%.0 %.%.%.0 %.&.*.*.*.*.*.*.*.*.*.*.*.*.<.|.|.|.|.|.|.|.|.|.|.e.f.P P P P P P P P P       "};
