/* XPM */
static char * african_woman_xpm[] = {
"50 50 215 2",
"  	c None",
". 	c #4D2C21",
"+ 	c #381D16",
"@ 	c #553025",
"# 	c #3F2119",
"$ 	c #7F4739",
"% 	c #68382B",
"& 	c #4E2C21",
"* 	c #794437",
"= 	c #8F5041",
"- 	c #774132",
"; 	c #643529",
"> 	c #3A1E17",
", 	c #60362A",
"' 	c #844A3C",
") 	c #6D3B2D",
"! 	c #4A271E",
"~ 	c #744133",
"{ 	c #734033",
"] 	c #744134",
"^ 	c #7A4437",
"/ 	c #874C3D",
"( 	c #774032",
"_ 	c #784132",
": 	c #703D2F",
"< 	c #643629",
"[ 	c #5E3327",
"} 	c #5D3226",
"| 	c #5F3226",
"1 	c #4C2C21",
"2 	c #774031",
"3 	c #371D16",
"4 	c #764032",
"5 	c #674722",
"6 	c #6F4F23",
"7 	c #513021",
"8 	c #8E5041",
"9 	c #3D2116",
"0 	c #623918",
"a 	c #583217",
"b 	c #573721",
"c 	c #B18A27",
"d 	c #E1B42B",
"e 	c #ECBD2C",
"f 	c #E8BA2C",
"g 	c #C69C28",
"h 	c #945B3E",
"i 	c #80482F",
"j 	c #BE751D",
"k 	c #E28C21",
"l 	c #E68F21",
"m 	c #DB8820",
"n 	c #A9681C",
"o 	c #462616",
"p 	c #D7AB2A",
"q 	c #B3803B",
"r 	c #AC6956",
"s 	c #B16D59",
"t 	c #935344",
"u 	c #7B4335",
"v 	c #A25C4D",
"w 	c #9D584A",
"x 	c #A5622D",
"y 	c #D0811F",
"z 	c #DEB12B",
"A 	c #D9AD2A",
"B 	c #EBBC2C",
"C 	c #CF9F35",
"D 	c #A86553",
"E 	c #B26E5A",
"F 	c #A86653",
"G 	c #925243",
"H 	c #7A4234",
"I 	c #985647",
"J 	c #A45D4E",
"K 	c #975546",
"L 	c #C57928",
"M 	c #E58E21",
"N 	c #D2821F",
"O 	c #D88620",
"P 	c #E9BB2C",
"Q 	c #987425",
"R 	c #745423",
"S 	c #DCB02A",
"T 	c #E9B92D",
"U 	c #975B40",
"V 	c #985848",
"W 	c #83483A",
"X 	c #814931",
"Y 	c #E28C22",
"Z 	c #D68420",
"` 	c #673D18",
" .	c #8F561A",
"..	c #E38D21",
"+.	c #B78F27",
"@.	c #816023",
"#.	c #C99836",
"$.	c #A05F4D",
"%.	c #8E4F40",
"&.	c #BE7429",
"*.	c #754618",
"=.	c #AF6B1C",
"-.	c #906D24",
";.	c #4C2B21",
">.	c #AA753D",
",.	c #A96653",
"'.	c #AF6C58",
").	c #A05B4C",
"!.	c #995647",
"~.	c #85493A",
"{.	c #9A5A2F",
"].	c #E48E21",
"^.	c #865119",
"/.	c #A37E26",
"(.	c #624222",
"_.	c #DFB12E",
":.	c #784133",
"<.	c #D88622",
"[.	c #532F17",
"}.	c #9A5E1B",
"|.	c #DDB02B",
"1.	c #C09728",
"2.	c #CBA129",
"3.	c #553024",
"4.	c #82483A",
"5.	c #6B3A2C",
"6.	c #402119",
"7.	c #C4791E",
"8.	c #B9721D",
"9.	c #522F17",
"0.	c #D68520",
"a.	c #E0B32B",
"b.	c #B38C27",
"c.	c #AB8526",
"d.	c #D2A72A",
"e.	c #8C6A24",
"f.	c #784335",
"g.	c #8D4F40",
"h.	c #754031",
"i.	c #623529",
"j.	c #824E19",
"k.	c #CC7E1F",
"l.	c #A3631B",
"m.	c #AB691C",
"n.	c #DA8720",
"o.	c #BB9328",
"p.	c #693A2C",
"q.	c #7F4637",
"r.	c #854A3B",
"s.	c #8A4D3E",
"t.	c #8C4E3F",
"u.	c #743F31",
"v.	c #733E31",
"w.	c #6F3C2F",
"x.	c #693A2E",
"y.	c #62362B",
"z.	c #542E24",
"A.	c #B36E1D",
"B.	c #E7B92C",
"C.	c #AC8526",
"D.	c #61362B",
"E.	c #A3641B",
"F.	c #E18C21",
"G.	c #B28B27",
"H.	c #9C7825",
"I.	c #614122",
"J.	c #522E17",
"K.	c #93591B",
"L.	c #AA681C",
"M.	c #D08120",
"N.	c #6A3A2C",
"O.	c #923B1F",
"P.	c #89381E",
"Q.	c #83361E",
"R.	c #84361E",
"S.	c #803D2B",
"T.	c #573026",
"U.	c #44241C",
"V.	c #44251C",
"W.	c #45251C",
"X.	c #49271F",
"Y.	c #CD4A1C",
"Z.	c #DE4C12",
"`.	c #D94B15",
" +	c #98442C",
".+	c #DC4C13",
"++	c #A4452A",
"@+	c #B04627",
"#+	c #BC4822",
"$+	c #794132",
"%+	c #C6491F",
"&+	c #64352A",
"*+	c #A01410",
"=+	c #693329",
"-+	c #CD4A1B",
";+	c #AD0000",
">+	c #A60E0A",
",+	c #703228",
"'+	c #AE0000",
")+	c #A90906",
"!+	c #762F25",
"~+	c #AC0403",
"{+	c #7F2C22",
"]+	c #872820",
"^+	c #91221A",
"/+	c #764031",
"(+	c #981D16",
"_+	c #9F1812",
":+	c #673429",
"<+	c #A4110C",
"[+	c #6D3228",
"}+	c #A80C08",
"|+	c #743026",
"1+	c #AB0604",
"2+	c #7B2E24",
"                                              . . + +                                               ",
"                                      . . . . . . + + + + + +                                       ",
"                                . . . . . . . . . + + + + + + + + +                                 ",
"                            . . . . . . . . . . . + + + + + + + + + + +                             ",
"                            . . . . . . . . . . . + + + + + + + + + + +                             ",
"                        . . . . . . . . . . . . . + + + + + + + + + + + + +                         ",
"                      . . . . . . . . . . . . . . + + + + + + + + + + + + + +                       ",
"                    . . . . . . . . . . . . . . . + + + + + + + + + + + + + + +                     ",
"                  . . . . . . . . . . . . . . . . + + + + + + + + + + + + + + + +                   ",
"                . . . . . . . . . . . . . . . . . + + + + + + + + + + + + + + + + +                 ",
"                . . . . . . . . . . . . . . . . @ # + + + + + + + + + + + + + + + +                 ",
"                . . . . . . . . . . . . . . . . $ % + + + + + + + + + + + + + + + +                 ",
"                . . . . . . . . . . . . . . & * = - ; > + + + + + + + + + + + + + +                 ",
"              . . . . . . . . . . . . . . , ' = = - - ) ! + + + + + + + + + + + + + +               ",
"            . . . . . . . . ~ { { { ] ^ / = = = = ( - - _ : < [ } } } | + + + + + + + +             ",
"            . . . . . . . 1 = = = = = = = = = = = 2 _ - ( - _ - - _ - - + + + + + + + +             ",
"              . . . . . . . = = = = = = = = = = = - - - _ - _ _ - - ( ( + + + + + + +               ",
"            . . . . . . . . = = = = = = = = = = = - ( - - - - ( _ - ( - 3 + + + + + + +             ",
"            . . . . . . . . = = = = = = = = = = = 2 - - - _ 4 _ - - - 4 + + + + + + + +             ",
"            . . . . 5 6 7 . 8 = = = = = = = = = = - 4 ( 4 - _ - ( - - 4 + 9 0 a + + + +             ",
"            . b c d e e f g h = = = = = = = = = = 4 - - - 2 - 4 - - - i j k l l m n o +             ",
"              p e e e e e e q = = = = = r s s t = - u v v w - _ _ - _ x l l l l l l y               ",
"            e e e e z A B e C = = = = = D E E F G H I J J K - - - _ - L l M N O l l l l             ",
"            e e P Q . . R S T U = = = = V E E E E J J J J W - - - 4 X Y Z ` + +  ...l l             ",
"          e e e +.. . . . @.e #.= = = = = $.E E E J J J %._ ( - - - &.l *.+ + + + =.l l l           ",
"          e e e -.. . . . ;.B B >.= = = = = V ,.'.).!.~.- _ 4 - _ {.M ].3 + + + + ^.l l l           ",
"          e e e /.. . . . (.e e _./ = = = = = = = - - - _ - - :.: <.l l [.+ + + + }.l l l           ",
"            e e |.(.. . . 1.e e 2.3.4.= = = = = = - _ ( _ - 4 5.6.7.l l 8.+ + + 9.0.l l             ",
"            e e e a.b.c.d.e e e e.. . f.g.= = = = ( - ( ( h.i.+ + j.l l l k.l.m.n.l l l             ",
"              e e e e e e e e o.. . . p.- q.r.s.t.u.v.w.x.y.z.+ + + A.l l l l l l l l               ",
"                e e e e e B.C.. . . . p.- - - - :.D.D.D.D.D.z.+ + + + E.F.l l l l l                 ",
"                    p G.H.I.. . . . . p.- - 2 _ - D.D.D.D.D.z.+ + + + + J.K.L.M.                    ",
"                      . . . . . . . . N.- - 4 4 _ D.D.D.D.D.z.+ + + + + + + +                       ",
"                        O.P.Q.Q.Q.Q.R.S._ - - - - D.D.D.D.D.T.U.V.V.U.W.W.X.                        ",
"                - _ - - Y.Z.Z.Z.Z.Z.Z.`. +_ - _ _ D.D.D.D.D.D.D.D.D.D.D.D.D.D.D.D.D.                ",
"            - - - 4 - - Y.Z.Z.Z.Z.Z.Z.Z..+++_ _ - D.D.D.D.D.D.D.D.D.D.D.D.D.D.D.D.D.D.D.            ",
"          - - - - - - - Y.Z.Z.Z.Z.Z.Z.Z.Z.Z.@+- _ D.D.D.D.D.D.D.D.D.D.D.D.D.D.D.D.D.D.D.D.          ",
"          - - - - - - - Y.Z.Z.Z.Z.Z.Z.Z.Z.Z.Z.#+$+D.D.D.D.D.D.D.D.D.D.D.D.D.D.D.D.D.D.D.D.          ",
"        - - - _ ( 4 _ - Y.Z.Z.Z.Z.Z.Z.Z.Z.Z.Z.Z.%+&+D.D.D.D.D.D.D.D.D.D.D.D.D.D.D.D.D.D.D.D.        ",
"        - - _ ( - - - 4 Y.Z.Z.Z.Z.Z.Z.Z.Z.Z.Z.Z.Z.*+=+D.D.D.D.D.D.D.D.D.D.D.D.D.D.D.D.D.D.D.        ",
"        - - _ _ - - 2 ( -+Z.Z.Z.Z.Z.Z.Z.Z.Z.Z.Z.Z.;+>+,+D.D.D.D.D.D.D.D.D.D.D.D.D.D.D.D.D.D.        ",
"      - - - - - - - _ - Y.Z.Z.Z.Z.Z.Z.Z.Z.Z.Z.Z.Z.;+'+)+!+D.D.D.D.D.D.D.D.D.D.D.D.D.D.D.D.D.D.      ",
"      - - - 4 - ( _ - :.Y.Z.Z.Z.Z.Z.Z.Z.Z.Z.Z.Z.Z.;+'+'+~+{+D.D.D.D.D.D.D.D.D.D.D.D.D.D.D.D.D.      ",
"      - - - - - _ - 2 - -+Z.Z.Z.Z.Z.Z.Z.Z.Z.Z.Z.Z.;+'+'+'+'+]+D.D.D.D.D.D.D.D.D.D.D.D.D.D.D.D.      ",
"      - - - - ( _ - - ( Y.Z.Z.Z.Z.Z.Z.Z.Z.Z.Z.Z.Z.;+'+'+'+'+'+^+D.D.D.D.D.D.D.D.D.D.D.D.D.D.D.      ",
"      - - - - - - - _ /+Y.Z.Z.Z.Z.Z.Z.Z.Z.Z.Z.Z.Z.;+'+'+'+'+'+'+(+&+D.D.D.D.D.D.D.D.D.D.D.D.D.      ",
"      - - - _ - ( _ - - Y.Z.Z.Z.Z.Z.Z.Z.Z.Z.Z.Z.Z.;+'+'+'+'+'+'+'+_+:+D.D.D.D.D.D.D.D.D.D.D.D.      ",
"      - - - - :.4 - - ( Y.Z.Z.Z.Z.Z.Z.Z.Z.Z.Z.Z.Z.;+'+'+'+'+'+'+'+'+<+[+D.D.D.D.D.D.D.D.D.D.D.      ",
"      - - :.- 4 ( _ - ( Y.Z.Z.Z.Z.Z.Z.Z.Z.Z.Z.Z.Z.;+'+'+'+'+'+'+'+'+'+}+|+D.D.D.D.D.D.D.D.D.D.      ",
"      - ( - _ - - - _ - Y.Z.Z.Z.Z.Z.Z.Z.Z.Z.Z.Z.Z.;+'+'+'+'+'+'+'+'+'+'+1+2+D.D.D.D.D.D.D.D.D.      "};
