/* XPM */
static char * plus_xpm[] = {
"50 50 170 2",
"  	c None",
". 	c #5DE2FE",
"+ 	c #5DE1FE",
"@ 	c #5DE1FD",
"# 	c #5CE1FD",
"$ 	c #5CDEFC",
"% 	c #5BDEFC",
"& 	c #5CDFFC",
"* 	c #5BDEFB",
"= 	c #5BDCFA",
"- 	c #5BDCFB",
"; 	c #5BDDFB",
"> 	c #5ADAFA",
", 	c #5AD9F9",
"' 	c #5ADAF9",
") 	c #5ADBFA",
"! 	c #59D6F8",
"~ 	c #59D7F8",
"{ 	c #58D5F8",
"] 	c #57D2F6",
"^ 	c #57D3F6",
"/ 	c #58D3F6",
"( 	c #56CFF4",
"_ 	c #56CEF4",
": 	c #55CCF2",
"< 	c #55CBF2",
"[ 	c #53C8F0",
"} 	c #54C8F1",
"| 	c #52C4EF",
"1 	c #52C4EE",
"2 	c #50C1ED",
"3 	c #50C0ED",
"4 	c #50C0EC",
"5 	c #4FBDEB",
"6 	c #4FBCEB",
"7 	c #4EBCEB",
"8 	c #4DB9E9",
"9 	c #4EBAEA",
"0 	c #4DB8E9",
"a 	c #4DBAE9",
"b 	c #4CB5E7",
"c 	c #4BB4E6",
"d 	c #4BB4E7",
"e 	c #4BB5E7",
"f 	c #4AB0E5",
"g 	c #4AB1E5",
"h 	c #49AFE4",
"i 	c #49B0E4",
"j 	c #48ABE2",
"k 	c #48ACE2",
"l 	c #47ABE2",
"m 	c #46A7E0",
"n 	c #46A8E0",
"o 	c #44A2DE",
"p 	c #44A2DD",
"q 	c #44A3DE",
"r 	c #429EDB",
"s 	c #429FDC",
"t 	c #409AD9",
"u 	c #409BD9",
"v 	c #3F96D7",
"w 	c #3E95D6",
"x 	c #3F96D6",
"y 	c #3F95D6",
"z 	c #3F97D7",
"A 	c #3D91D4",
"B 	c #3C90D4",
"C 	c #3D92D4",
"D 	c #3C90D3",
"E 	c #3B8CD2",
"F 	c #3B8DD2",
"G 	c #3A8BD1",
"H 	c #3B8ED2",
"I 	c #3B8CD1",
"J 	c #3988CF",
"K 	c #3783CD",
"L 	c #3683CC",
"M 	c #3683CD",
"N 	c #3784CD",
"O 	c #3682CC",
"P 	c #357ECB",
"Q 	c #347ECA",
"R 	c #357FCB",
"S 	c #3681CC",
"T 	c #357ECA",
"U 	c #347DCA",
"V 	c #3279C7",
"W 	c #327AC8",
"X 	c #3279C8",
"Y 	c #3174C5",
"Z 	c #3173C5",
"` 	c #3176C6",
" .	c #3277C6",
"..	c #3074C5",
"+.	c #2F6FC2",
"@.	c #2F70C2",
"#.	c #2E6FC2",
"$.	c #2D6BC0",
"%.	c #2D6CC0",
"&.	c #2D6AC0",
"*.	c #2C6ABF",
"=.	c #2C6AC0",
"-.	c #2B66BD",
";.	c #2A64BC",
">.	c #2A65BD",
",.	c #2B65BD",
"'.	c #2B67BD",
").	c #2960BA",
"!.	c #2961BA",
"~.	c #285FBA",
"{.	c #2860BA",
"].	c #265AB7",
"^.	c #265BB7",
"/.	c #265AB8",
"(.	c #2456B5",
"_.	c #2455B5",
":.	c #2250B2",
"<.	c #2251B2",
"[.	c #204CAF",
"}.	c #204BAF",
"|.	c #204CB0",
"1.	c #1E46AC",
"2.	c #1E47AD",
"3.	c #1C40A9",
"4.	c #1C43AA",
"5.	c #1B40A9",
"6.	c #1B3FA8",
"7.	c #1A3CA7",
"8.	c #1A3DA7",
"9.	c #193BA6",
"0.	c #193BA7",
"a.	c #1A3BA7",
"b.	c #1735A3",
"c.	c #1735A4",
"d.	c #1736A4",
"e.	c #1530A1",
"f.	c #152FA0",
"g.	c #142FA0",
"h.	c #132A9E",
"i.	c #13299D",
"j.	c #13299E",
"k.	c #11259B",
"l.	c #11249B",
"m.	c #10249B",
"n.	c #10249A",
"o.	c #0E1F98",
"p.	c #0D1B96",
"q.	c #0C1A95",
"r.	c #0C1995",
"s.	c #0A1492",
"t.	c #0A1392",
"u.	c #091391",
"v.	c #091291",
"w.	c #091392",
"x.	c #0A1592",
"y.	c #080E8F",
"z.	c #070E8F",
"A.	c #080F8F",
"B.	c #080F90",
"C.	c #080E90",
"D.	c #060A8D",
"E.	c #05098D",
"F.	c #05088C",
"G.	c #05088D",
"H.	c #06098D",
"I.	c #04058A",
"J.	c #04048A",
"K.	c #040389",
"L.	c #030389",
"M.	c #04038A",
"            . . . . . . . . . . . . . . . . . . . . . . . . . . . . . . . . . . . . . .             ",
"        . + @ + @ # . . + # + . + @ # . . + + @ . + + @ . . + @ @ + . + @ @ . + + # + + . +         ",
"      $ % & % % & * & % % $ * % $ % $ $ $ & $ % % $ % $ * & % $ $ % & $ % $ $ & % $ & $ $ % &       ",
"    = = - = - ; ;                                                                 * ; - = = - ;     ",
"  > , ' ' '                                                                             ) , > > )   ",
"  ! ! ! ~                                                                                 ! ! { !   ",
"] ] ^ ]                                                                                     ] ] ] / ",
"( ( ( (                                                                                     ( _ ( ( ",
": : < :                                                                                     : : < : ",
"[ [ }                                                                                         [ } [ ",
"| | |                                                                                         1 | | ",
"2 2 3                                                                                         4 2 3 ",
"5 6 5                                         5 6 5 6                                         7 5 7 ",
"8 8 9                                         8 0 8 a                                         0 0 8 ",
"b b c                                         d d e d                                         d e e ",
"f g h                                         i i h f                                         h h i ",
"j k l                                         k l l l                                         k j j ",
"m n m                                         m m m m                                         m m m ",
"o p q                                         q q q p                                         p q q ",
"r r s                                         s s r s                                         r s r ",
"t t t                                         u t t t                                         t t t ",
"v w v                                         x v x v                                         y z x ",
"A B C                                         D A C C                                         A A C ",
"E E F                   G F F F F F F F F F F H F F F F E E F E F I F F F E                   F F E ",
"J J J                   J J J J J J J J J J J J J J J J J J J J J J J J J J                   J J J ",
"K L L                   K K M K K K N N K K K L L K K K K K L K O K K L K K                   N L K ",
"P Q Q                   R R P R R P S R Q P Q Q Q Q Q R R P P R Q P T P Q P                   U Q T ",
"V V V                                         W V X W                                         V V V ",
"Y Z Z                                         Y Y Z Y                                         `  ...",
"+.+.+.                                        @.+.+.+.                                        @.#.#.",
"$.%.&.                                        *.$.$.$.                                        =.$.$.",
"-.;.-.                                        >.,.-.'.                                        -.-.-.",
").!.).                                        ~.!.).{.                                        {.{.).",
"].].^.                                        ^.].^./.                                        ]./.^.",
"(._._.                                        _._.(.(.                                        _.(._.",
":.:.<.                                        <.:.:.:.                                        :.<.:.",
"[.}.}.                                        }.}.[.[.                                        |.}.}.",
"1.1.1.                                        2.1.1.2.                                        1.1.1.",
"3.3.4.                                                                                        5.5.6.",
"7.8.9.                                                                                        0.a.9.",
"b.c.b.                                                                                        d.b.c.",
"e.e.f.f.                                                                                    g.e.g.e.",
"h.h.i.h.                                                                                    h.j.h.h.",
"k.k.k.l.                                                                                    m.l.n.k.",
"  o.o.o.o.                                                                                o.o.o.o.  ",
"  p.q.q.q.r.                                                                            q.q.r.r.p.  ",
"    s.s.t.t.s.u.v.                                                                v.w.x.s.s.s.s.    ",
"      y.y.y.y.z.A.y.y.B.y.z.y.B.y.B.B.C.A.y.z.y.B.y.B.B.B.y.y.y.z.y.y.B.B.B.y.z.y.y.y.z.y.y.y.      ",
"        D.E.F.G.E.E.E.E.E.E.E.E.E.E.E.E.E.E.E.E.E.F.G.E.G.G.E.H.E.F.E.F.E.F.F.E.E.E.E.F.E.D.        ",
"            I.J.K.K.K.K.K.K.K.L.K.K.J.K.K.K.K.M.K.K.K.J.K.K.K.K.M.K.K.K.K.M.M.M.K.K.J.I.            "};
