/* XPM */
static char * walls_xpm[] = {
"50 50 198 2",
"  	c None",
". 	c #000000",
"+ 	c #0C0201",
"@ 	c #81362A",
"# 	c #AD4B3B",
"$ 	c #B04E3D",
"% 	c #B95844",
"& 	c #56251B",
"* 	c #752922",
"= 	c #BC473B",
"- 	c #933F31",
"; 	c #AE4B3C",
"> 	c #B2513F",
", 	c #B85844",
"' 	c #B65743",
") 	c #B45642",
"! 	c #B25542",
"~ 	c #B35542",
"{ 	c #B45643",
"] 	c #B55643",
"^ 	c #B75744",
"/ 	c #9F4B3A",
"( 	c #501F17",
"_ 	c #B65643",
": 	c #8A4031",
"< 	c #DD624E",
"[ 	c #E06550",
"} 	c #EB7259",
"| 	c #723427",
"1 	c #6E261F",
"2 	c #BB463A",
"3 	c #C65745",
"4 	c #E36953",
"5 	c #D1654E",
"6 	c #6B2C21",
"7 	c #E86F57",
"8 	c #240B07",
"9 	c #BB5241",
"0 	c #B24E3D",
"a 	c #954133",
"b 	c #9C4A38",
"c 	c #471E15",
"d 	c #7B2C24",
"e 	c #BF483C",
"f 	c #7D3428",
"g 	c #964334",
"h 	c #843D2F",
"i 	c #431912",
"j 	c #9B4837",
"k 	c #5E1B18",
"l 	c #5B1A17",
"m 	c #5D1B17",
"n 	c #62211A",
"o 	c #70271F",
"p 	c #BD473B",
"q 	c #CE4E41",
"r 	c #97372D",
"s 	c #63221B",
"t 	c #65221C",
"u 	c #A83731",
"v 	c #A43530",
"w 	c #A63831",
"x 	c #AF4136",
"y 	c #B04236",
"z 	c #C34A3D",
"A 	c #B34338",
"B 	c #270806",
"C 	c #260806",
"D 	c #9C4334",
"E 	c #C75845",
"F 	c #CA5B47",
"G 	c #D4664F",
"H 	c #CF644D",
"I 	c #A53D32",
"J 	c #C25544",
"K 	c #C75846",
"L 	c #CF614C",
"M 	c #A64F3D",
"N 	c #E77057",
"O 	c #D9604D",
"P 	c #E56C55",
"Q 	c #E66C55",
"R 	c #E06650",
"S 	c #040101",
"T 	c #1A0806",
"U 	c #260D09",
"V 	c #280E0A",
"W 	c #250C09",
"X 	c #230D09",
"Y 	c #1E0B07",
"Z 	c #190906",
"` 	c #140705",
" .	c #120604",
"..	c #130605",
"+.	c #150705",
"@.	c #160705",
"#.	c #160805",
"$.	c #170806",
"%.	c #1B0906",
"&.	c #1C0A06",
"*.	c #1D0A07",
"=.	c #1F0B07",
"-.	c #1F0C08",
";.	c #210D08",
">.	c #1E0A07",
",.	c #B24237",
"'.	c #0E0403",
").	c #290E0A",
"!.	c #230C08",
"~.	c #210C08",
"{.	c #170805",
"].	c #130604",
"^.	c #1A0906",
"/.	c #200C08",
"(.	c #120503",
"_.	c #872A26",
":.	c #832925",
"<.	c #852B26",
"[.	c #8C332A",
"}.	c #8D332A",
"|.	c #A83E34",
"1.	c #91352B",
"2.	c #99382E",
"3.	c #CA4D40",
"4.	c #B54438",
"5.	c #8E332A",
"6.	c #96372D",
"7.	c #CD4E41",
"8.	c #A23C31",
"9.	c #CA4C40",
"0.	c #100403",
"a.	c #200B07",
"b.	c #220D08",
"c.	c #220D09",
"d.	c #050101",
"e.	c #893229",
"f.	c #C54A3E",
"g.	c #1B0503",
"h.	c #0C0403",
"i.	c #230B08",
"j.	c #1C0A07",
"k.	c #180806",
"l.	c #58271D",
"m.	c #E26A53",
"n.	c #753629",
"o.	c #180805",
"p.	c #1C0504",
"q.	c #220C08",
"r.	c #9A4234",
"s.	c #662E22",
"t.	c #6F261F",
"u.	c #B04D3D",
"v.	c #CC5E4A",
"w.	c #BC5A46",
"x.	c #60261D",
"y.	c #D2644E",
"z.	c #A44E3C",
"A.	c #9E3A30",
"B.	c #C94C3F",
"C.	c #491712",
"D.	c #CA4C3F",
"E.	c #A73731",
"F.	c #B9463A",
"G.	c #C84C3F",
"H.	c #B04237",
"I.	c #5F1B18",
"J.	c #5C1A17",
"K.	c #63211B",
"L.	c #832F26",
"M.	c #CB4D40",
"N.	c #6A2C21",
"O.	c #954132",
"P.	c #9B4938",
"Q.	c #9A4938",
"R.	c #9A4838",
"S.	c #994837",
"T.	c #984837",
"U.	c #984737",
"V.	c #974736",
"W.	c #964736",
"X.	c #9C4938",
"Y.	c #914434",
"Z.	c #A93F34",
"`.	c #893A2D",
" +	c #984535",
".+	c #974636",
"++	c #BD5342",
"@+	c #DF6450",
"#+	c #EA7259",
"$+	c #B75743",
"%+	c #B55743",
"&+	c #AE5340",
"*+	c #A63D33",
"=+	c #A34738",
"-+	c #B45341",
";+	c #B25541",
">+	c #B75844",
",+	c #3C150F",
"  . . . . . . . . . .     + . . . . . . . . . . . . . . . . . . . . . . +     . . . . . . . . . .   ",
". @ # # # $ % % % % & * = . - # ; # > , ' ) ! ! ! ~ ) ) { ] ' ' ^ ^ , / . = * ( # # # # _ % % % : . ",
". # < < < [ } } } } | 1 2 . 3 < < < 4 } } } } } } } } } } } } } } } } 5 . 2 1 6 < < < < 7 } } } % . ",
". # < < < [ } } } } | 1 2 . 3 < < < 4 } } } } } } } } } } } } } } } } 5 . 2 1 6 < < < < 7 } } } % . ",
"8 9 < < < [ } } } } | 1 2 . 3 < < < 4 } } } } } } } } } } } } } } } } 5 . 2 1 6 < < < < 7 } } } % . ",
"  < < < < [ } } } } | 1 2 . 3 < < < 4 } } } } } } } } } } } } } } } } 5 . 2 1 6 < < < < 7 } } } % . ",
"  < < < < [ } } } } | 1 2 . 3 < < < 4 } } } } } } } } } } } } } } } } 5 . 2 1 6 < < < < 7 } } } % . ",
". 0 < < < [ } } } } | 1 2 . 3 < < < 4 } } } } } } } } } } } } } } } } 5 . 2 1 6 < < < < 7 } } } % . ",
". # < < < [ } } } } | 1 2 . 3 < < < 4 } } } } } } } } } } } } } } } } 5 . 2 1 6 < < < < 7 } } } % . ",
". # < < < [ } } } } | 1 2 . 3 < < < 4 } } } } } } } } } } } } } } } } 5 . 2 1 6 < < < < 7 } } } % . ",
". 6 - - - a b b b b c d e . f - - - g b b b b b b b b b b b b b b b b h . e d i - - - - j b b b | . ",
"  k l l l m n n n n o p q r s n n n n n n n n n n n n n n n n n n n n s r q p o n n n n n n n n t   ",
"  u v v v w x x x x x x x x x x x x x x x x y z q q z y x x x x x x x x x x x x x x x x x x x x A   ",
". . . . . . . . . . . . . . . . . . . . . . . B p p C . . . . . . . . . . . . . . . . . . . . . . . ",
". D E E E F G G G G G G G G G G G G G G G G H . I I . J E K K L G G G G G G G G G G G G G G G G M . ",
". # < < < [ } } } } } } } } } } } } } } } } N . I I . O < < < P } } } } } } } } } } } } } } } } % . ",
". # < < < [ } } } } } } } } } } } } } } } } N . I I . O < < < P } } } } } } } } } } } } } } } } % . ",
". # < < < [ } } } } } } } } } } } } } } } } N . I I . O < < < P } } } } } } } } } } } } } } } } % . ",
". # < < < [ } } } } } } } } } } } } } } } } N . I I . O < < < P } } } } } } } } } } } } } } } } % . ",
". # < < < [ } } } } } } } } } } } } } } } } N . I I . O < < < P } } } } } } } } } } } } } } } } % . ",
". # < < < [ } } } } } } } } } } } } } } } } N . I I . O < < < P } } } } } } } } } } } } } } } } % . ",
". # < < < [ } } } } } } } } } } } } } } } } N . I I . O < < < Q } } } } } } } } } } } } } } } } % . ",
". # < < < R } } } } } } } } } } } } } } } } N . I I . O < < < P } } } } } } } } } } } } } } } } % . ",
". S T U V W X Y Z `  ...+.@.#.$.%.&.*.=.-.;.>.. ,.,.. '.>.).U !.~.&.{.]. ...@.#.$.^.%.%.Y -./.;.(.. ",
"  _.:.:.:.<.[.[.[.[.[.[.[.[.[.[.[.[.[.[.[.[.}.|.q q |.}.[.[.[.[.[.[.[.[.[.[.[.[.[.[.[.[.[.[.[.[.1.  ",
"  _.:.:.:.<.[.[.[.[.2.3.q 4.5.[.[.[.[.[.[.[.[.[.[.[.[.[.[.6.7.q 8.[.[.5.4.q 9.2.[.[.[.[.[.[.[.[.1.  ",
". 0.=.=.=.a.b.c.c.b.d.e.f.g.h.!.).i.j.k. ...+.$.k.%.Y /.;.l.m.P n.b.c.o.p.f.e.d.=.=.=.=.q.b.b.b.(.. ",
". # < < < [ } } } } | 1 2 . 3 < < < 4 } } } } } } } } } } } } } } } } 5 . 2 1 6 < < < < 7 } } } % . ",
". # < < < [ } } } } | 1 2 . 3 < < < 4 } } } } } } } } } } } } } } } } 5 . 2 1 6 < < < < 7 } } } % . ",
". # < < < R } } } } | 1 2 . 3 < < < 4 } } } } } } } } } } } } } } } } 5 . 2 1 6 < < < < 7 } } } % . ",
". # < < < [ } } } } | 1 2 . 3 < < < 4 } } } } } } } } } } } } } } } } 5 . 2 1 6 < < < < 7 } } } % . ",
". # < < < [ } } } } | 1 2 . 3 < < < 4 } } } } } } } } } } } } } } } } 5 . 2 1 6 < < < < 7 } } } % . ",
". # < < < [ } } } } | 1 2 . 3 < < < 4 } } } } } } } } } } } } } } } } 5 . 2 1 6 < < < < 7 } } } % . ",
". # < < < [ } } } } | 1 2 . 3 < < < 4 } } } } } } } } } } } } } } } } 5 . 2 1 6 < < < < 7 } } } % . ",
". # < < < [ } } } } | 1 2 . 3 < < < 4 } } } } } } } } } } } } } } } } 5 . 2 1 6 < < < < 7 } } } % . ",
". r.E E E F G G G G s.t.2 . u.K K E v.G G G G G G G G G G G G G G G G w.. 2 t.x.E E E E y.G G G z.. ",
". . . . . . . . . . . A.B.C.. . . . . . . . . . . . . . . . . . . . . . C.D.A.. . . . . . . . . . . ",
"  E.v v v w x x x x F.q q G.H.x x x x x x x x x x x x x x x x x x x x H.G.q q F.x x x x x x x x A   ",
"  I.l l J.m K.n n n n n n n n n n n n n n n K.L.M.M.L.K.n n n n n n n n n n n n n n n n n n n n t   ",
". N.- - - O.P.Q.R.S.T.U.V.W.W.S.X.b b b b b Y.. Z.Z.. `.- - -  +b X.S.W..+V.U.T.S.R.Q.P.X.b b b | . ",
". # < < < [ } } } } } } } } } } } } } } } } N . I I . O < < < P } } } } } } } } } } } } } } } } % . ",
". # < < < [ } } } } } } } } } } } } } } } } N . I I . O < < < P } } } } } } } } } } } } } } } } % . ",
". # < < < [ } } } } } } } } } } } } } } } } N . I I . O < < < P } } } } } } } } } } } } } } } } % . ",
". # < < < [ } } } } } } } } } } } } } } } } N . I I . O < < < P } } } } } } } } } } } } } } } } % . ",
". # < < < [ } } } } } } } } } } } } } } } } N . I I . O < < < P } } } } } } } } } } } } } } } } % . ",
". # < < < [ } } } } } } } } } } } } } } } } N . I I . O < < < P } } } } } } } } } } } } } } } } % . ",
". # < < < [ } } } } } } } } } } } } } } } } N . I I . O < < < P } } } } } } } } } } } } } } } } % . ",
". # < < < [ } } } } } } } } } } } } } } } } N . I I . O < < < P } } } } } } } } } } } } } } } } % . ",
". @ # # ++@+#+w., ^ $+%+] ) ~ ! ! ) $+% % % &+. *+*+. =+# # # -+, ' ) ! ;+! ~ ) ) ] ] ' ' ^ >+, : . ",
"  . . . ,+    . . . . . . . . . . . . . . . . .     . . . . . . . . . . . . . . . . . . . . . . .   "};
